<?xml version="1.0" standalone="no"?>
<!DOCTYPE svg PUBLIC "-//W3C//DTD SVG 20010904//EN"
 "http://www.w3.org/TR/2001/REC-SVG-20010904/DTD/svg10.dtd">
<svg version="1.0" xmlns="http://www.w3.org/2000/svg"
 width="715.292490pt" height="659.841170pt" viewBox="0 0 715.292490 659.841170"
 preserveAspectRatio="xMidYMid meet">
<metadata>
Created by potrace 1.12, written by Peter Selinger 2001-2015
</metadata>
<g transform="translate(-154.485274,842.841170) scale(0.100000,-0.100000)"
fill="#000000" stroke="none">
<path d="M4745 8420 c-358 -17 -813 -102 -1145 -215 -276 -93 -638 -295 -890
-495 -125 -99 -356 -328 -465 -460 -230 -281 -390 -568 -529 -952 -42 -116
-108 -348 -120 -423 -3 -16 -12 -68 -20 -115 -30 -172 -38 -320 -26 -492 27
-409 135 -685 355 -903 197 -198 436 -313 765 -372 54 -9 180 -17 343 -20
l257 -5 31 -58 c46 -86 181 -261 251 -325 255 -232 599 -329 1083 -305 99 5
205 11 235 14 l55 6 360 -401 c198 -220 474 -527 612 -682 139 -155 272 -297
295 -314 54 -41 153 -73 225 -73 64 0 160 23 217 52 55 28 137 114 164 170 36
78 42 123 42 361 l0 227 36 0 c20 0 82 7 138 16 542 85 966 377 1188 819 107
211 145 364 147 589 2 140 2 140 35 195 200 332 294 649 311 1046 11 236 -13
459 -74 698 -72 281 -319 721 -570 1017 -136 161 -370 383 -551 524 -180 140
-492 337 -698 440 -442 221 -777 325 -1287 400 -55 8 -125 17 -155 20 -79 9
-390 26 -425 24 -16 0 -102 -4 -190 -8z m645 -349 c41 -5 98 -13 125 -16 539
-71 1124 -304 1610 -641 217 -150 315 -233 516 -433 403 -404 642 -834 719
-1301 18 -105 24 -394 11 -490 -18 -134 -21 -149 -48 -255 -45 -180 -108 -331
-230 -547 l-54 -96 -9 -179 c-4 -98 -11 -185 -14 -193 -3 -8 -7 -31 -10 -50
-25 -171 -137 -372 -296 -532 -223 -223 -500 -347 -842 -379 -181 -16 -230
-31 -284 -84 -24 -25 -47 -59 -53 -81 -6 -23 -11 -143 -11 -289 0 -137 -5
-266 -10 -286 -7 -25 -20 -41 -45 -54 -31 -17 -37 -18 -64 -5 -17 8 -54 42
-83 76 -51 58 -318 356 -498 553 -47 52 -127 142 -179 200 -52 58 -100 111
-106 116 -6 6 -45 48 -86 95 -41 47 -79 89 -85 95 -6 5 -68 74 -138 153 -71
78 -141 149 -156 157 -58 30 -111 30 -300 -1 -14 -2 -97 -7 -185 -10 -353 -15
-606 56 -797 221 -112 96 -183 201 -238 348 -22 58 -59 99 -105 117 -21 8 -98
10 -270 5 -516 -15 -794 63 -1022 287 -120 117 -221 305 -249 463 -25 142 -34
232 -34 347 0 509 188 1063 517 1520 30 42 63 85 72 95 9 10 49 58 90 106 262
311 651 586 1056 747 263 104 619 189 900 215 39 4 102 11 140 15 89 11 646 4
745 -9z"/>
<path d="M4750 7560 c-25 -5 -81 -28 -126 -50 -192 -94 -317 -313 -300 -525
l5 -70 -152 -91 c-142 -86 -437 -264 -746 -452 l-134 -82 -42 39 c-145 133
-409 153 -567 42 -103 -71 -170 -165 -199 -278 -32 -129 -21 -241 37 -355 119
-235 404 -325 644 -203 27 14 65 39 85 56 l35 31 37 -22 c21 -12 275 -164 564
-337 l525 -316 -13 -51 c-29 -108 -2 -271 62 -376 82 -133 214 -213 380 -227
167 -14 322 60 441 209 l29 37 200 -68 c110 -38 326 -112 480 -166 154 -53
386 -133 516 -177 l236 -79 6 -82 c14 -192 109 -336 271 -413 293 -138 623 32
677 349 28 171 -22 328 -144 447 -47 46 -162 107 -217 116 l-37 6 -7 67 c-8
76 -11 102 -31 266 -8 66 -26 224 -40 350 -14 127 -32 279 -40 338 -20 146
-20 174 4 182 51 16 144 88 185 145 182 246 107 581 -159 711 -67 32 -75 34
-181 34 -107 0 -112 -1 -185 -37 -50 -25 -93 -56 -126 -91 -49 -51 -51 -53
-79 -40 -133 60 -978 438 -1085 485 l-136 61 3 68 c11 224 -161 464 -383 535
-58 18 -231 27 -293 14z m855 -948 c121 -55 252 -114 290 -132 39 -18 149 -67
245 -111 96 -43 234 -105 305 -137 l130 -58 1 -60 c1 -32 3 -81 5 -109 l4 -50
-321 -200 c-343 -214 -689 -429 -897 -558 l-127 -79 -46 42 c-41 37 -153 100
-180 100 -13 0 -23 373 -28 1084 l-1 128 55 17 c107 34 195 95 273 191 30 38
44 47 56 41 9 -5 115 -54 236 -109z m-994 -81 c44 -22 95 -43 114 -47 l35 -6
0 -67 c0 -36 2 -142 4 -236 3 -93 8 -335 12 -536 l7 -366 -39 -13 c-53 -16
-143 -67 -176 -97 l-26 -25 -319 192 c-175 106 -356 216 -403 245 -47 29 -160
98 -252 154 -162 99 -168 104 -161 129 7 26 8 177 1 215 -2 15 102 81 501 322
l505 304 59 -64 c43 -48 78 -74 138 -104z m2138 -800 c48 -38 75 -51 141 -71
l55 -16 17 -140 c9 -76 19 -173 22 -214 4 -41 9 -86 11 -100 6 -34 13 -86 25
-200 6 -52 14 -129 20 -170 13 -105 40 -339 40 -355 0 -7 -12 -16 -27 -20 -45
-11 -119 -63 -175 -123 l-53 -57 -65 22 c-36 12 -216 73 -400 136 -184 63
-481 165 -659 226 -178 61 -327 113 -330 116 -5 6 -5 7 -15 97 l-6 58 57 35
c32 20 177 110 323 200 146 90 324 200 395 245 228 142 580 359 584 360 2 0
20 -13 40 -29z"/>
</g>
</svg>
