<?xml version="1.0" standalone="no"?>
<!DOCTYPE svg PUBLIC "-//W3C//DTD SVG 20010904//EN"
 "http://www.w3.org/TR/2001/REC-SVG-20010904/DTD/svg10.dtd">
<svg version="1.0" xmlns="http://www.w3.org/2000/svg"
 width="1024.000000pt" height="1024.000000pt" viewBox="0 0 1024.000000 1024.000000"
 preserveAspectRatio="xMidYMid meet">
<metadata>
Created by potrace 1.12, written by Peter Selinger 2001-2015
</metadata>
<g transform="translate(0.000000,1024.000000) scale(0.100000,-0.100000)"
fill="#000000" stroke="none">
<path d="M0 5120 l0 -5120 5120 0 5120 0 0 5120 0 5120 -5120 0 -5120 0 0
-5120z m5256 3290 c1066 -68 2059 -535 2737 -1285 326 -361 547 -742 638
-1103 86 -339 94 -764 19 -1078 -45 -192 -121 -400 -215 -584 l-53 -105 -12
-145 c-20 -255 -55 -412 -132 -588 -129 -296 -412 -581 -721 -727 -162 -77
-400 -142 -588 -161 l-66 -6 -7 -152 c-16 -390 -82 -534 -275 -607 -48 -18
-72 -20 -171 -17 -203 7 -241 33 -544 378 -482 549 -850 967 -898 1019 l-50
54 -66 -6 c-37 -3 -123 -11 -192 -18 -144 -13 -356 -7 -480 15 -403 72 -723
297 -866 609 l-28 62 -216 1 c-256 2 -406 16 -555 54 -368 93 -664 331 -835
670 -149 297 -195 712 -125 1125 90 528 339 1052 711 1495 428 510 1093 874
1883 1030 344 68 749 94 1107 70z"/>
<path d="M4720 8073 c-665 -35 -1351 -269 -1827 -624 -130 -97 -370 -338 -468
-472 -383 -517 -581 -1087 -562 -1612 14 -391 137 -668 374 -843 230 -169 520
-232 1008 -217 199 6 212 5 242 -14 41 -26 58 -53 89 -138 48 -134 85 -194
174 -284 73 -74 100 -93 190 -138 58 -28 150 -63 205 -78 94 -25 114 -27 330
-27 134 -1 285 5 362 13 180 19 203 13 303 -88 42 -42 184 -200 316 -351 715
-817 857 -977 886 -997 40 -29 117 -32 141 -5 22 24 35 148 43 397 3 105 10
205 16 223 26 86 111 142 215 142 147 1 359 40 515 96 293 105 528 319 659
598 76 163 109 331 109 556 l0 111 66 127 c190 366 251 586 261 932 7 271 -15
432 -93 665 -205 616 -823 1263 -1553 1630 -536 268 -1144 409 -1751 403 -107
-1 -220 -3 -250 -5z m324 -532 c121 -43 219 -119 288 -225 53 -81 78 -169 78
-270 l0 -81 58 -28 c56 -27 1043 -471 1134 -509 l47 -20 51 45 c66 60 180 107
274 114 133 10 270 -42 373 -143 129 -127 170 -308 109 -482 -34 -96 -136
-216 -221 -259 -27 -14 -51 -26 -53 -28 -2 -2 77 -702 113 -996 23 -184 19
-176 95 -202 138 -47 244 -136 302 -254 32 -66 33 -72 33 -193 0 -123 -1 -126
-36 -200 -65 -135 -174 -230 -312 -271 -55 -17 -87 -20 -170 -17 -89 3 -110 8
-170 35 -158 75 -277 264 -277 442 l0 36 -712 237 c-392 130 -722 239 -734
242 -17 5 -26 -2 -49 -38 -29 -47 -94 -100 -160 -134 -196 -98 -425 -56 -577
106 -106 115 -152 253 -130 391 7 38 14 75 17 83 3 8 -8 21 -27 33 -18 10
-266 164 -551 342 -285 178 -522 323 -527 323 -5 0 -10 -4 -12 -9 -7 -21 -141
-100 -205 -122 -174 -58 -378 1 -515 148 -141 152 -168 380 -65 555 34 59 132
150 195 182 167 84 393 69 540 -37 l51 -36 208 121 c114 67 348 203 518 302
l310 181 -4 96 c-6 168 43 294 160 410 70 70 151 117 249 144 75 21 225 14
304 -14z"/>
<path d="M5309 6694 c-24 -46 -111 -116 -193 -155 -44 -22 -86 -39 -93 -39
-11 0 -13 -118 -13 -624 l0 -625 23 -6 c12 -4 59 -29 104 -56 l83 -49 67 34
c78 39 1201 715 1251 753 28 21 33 30 27 52 -4 14 -10 68 -13 119 l-7 93 -250
110 c-579 255 -955 419 -963 419 -5 0 -15 -12 -23 -26z"/>
<path d="M4380 6648 c-177 -102 -918 -533 -935 -544 -18 -12 -20 -24 -19 -138
l0 -126 542 -339 c298 -186 553 -341 566 -345 19 -5 41 4 87 34 34 22 80 45
101 52 l38 11 2 619 3 618 -55 16 c-84 24 -149 61 -210 120 -31 30 -59 54 -61
54 -2 0 -29 -15 -59 -32z"/>
<path d="M6474 5602 c-126 -76 -420 -254 -654 -395 -234 -141 -434 -265 -446
-274 -18 -16 -20 -26 -16 -100 4 -78 5 -82 31 -88 14 -3 346 -112 737 -240
l710 -235 66 64 c36 35 88 76 117 90 28 15 51 33 51 42 0 22 -129 1115 -135
1145 -5 21 -16 28 -66 44 -34 10 -84 33 -111 51 -28 19 -51 34 -53 34 -1 0
-106 -62 -231 -138z"/>
</g>
</svg>
